<svg xmlns="http://www.w3.org/2000/svg" width="450" height="400" viewBox="0 0 450 400">
  <defs>
    <linearGradient id="ci-cd-illustration-a" x1="42.355%" x2="58.692%" y1="0%" y2="59.641%">
      <stop offset="0%" stop-color="#0E36BA"/>
      <stop offset="100%" stop-color="#0549D5" stop-opacity="0"/>
    </linearGradient>
    <linearGradient id="ci-cd-illustration-b" x1="0%" y1="45.937%" y2="50%">
      <stop offset="0%" stop-color="#9BC5FF" stop-opacity="0"/>
      <stop offset="100%" stop-color="#82B6FF"/>
    </linearGradient>
    <linearGradient id="ci-cd-illustration-c" x1="0%" x2="108.206%" y1="0%" y2="0%">
      <stop offset="0%" stop-color="#E7EEFF" stop-opacity="0"/>
      <stop offset="100%" stop-color="#CBD8FF"/>
    </linearGradient>
    <linearGradient id="ci-cd-illustration-d" x1="96.57%" x2="0%" y1="0%" y2="0%">
      <stop offset="0%" stop-color="#E7EEFF" stop-opacity="0"/>
      <stop offset="100%" stop-color="#CBD8FF"/>
    </linearGradient>
    <linearGradient id="ci-cd-illustration-e" x1="0%" y1="29.937%" y2="72.182%">
      <stop offset="0%" stop-color="#DCEBFF"/>
      <stop offset="100%" stop-color="#B3CFFC"/>
    </linearGradient>
    <linearGradient id="ci-cd-illustration-f" x1="0%" y1="29.937%" y2="72.182%">
      <stop offset="0%" stop-color="#8BBBFF"/>
      <stop offset="100%" stop-color="#0260F5"/>
    </linearGradient>
    <linearGradient id="ci-cd-illustration-g" x1="17.459%" x2="88.549%" y1="39.887%" y2="55.285%">
      <stop offset="0%" stop-color="#DCEBFF"/>
      <stop offset="100%" stop-color="#B3CFFC"/>
    </linearGradient>
    <linearGradient id="ci-cd-illustration-h" x1="-14.529%" x2="92.088%" y1="32.751%" y2="63.319%">
      <stop offset="0%" stop-color="#DCEBFF"/>
      <stop offset="100%" stop-color="#B3CFFC"/>
    </linearGradient>
    <linearGradient id="ci-cd-illustration-i" x1="5.286%" y1="50%" y2="50%">
      <stop offset="0%" stop-color="#8BBBFF" stop-opacity="0"/>
      <stop offset="100%" stop-color="#8BBBFF"/>
    </linearGradient>
    <linearGradient id="ci-cd-illustration-j" x1="0%" x2="73.4%" y1="50%" y2="50%">
      <stop offset="0%" stop-color="#8BBBFF" stop-opacity="0"/>
      <stop offset="100%" stop-color="#8BBBFF"/>
    </linearGradient>
    <linearGradient id="ci-cd-illustration-k" x1="100%" x2="0%" y1="100%" y2="0%">
      <stop offset="0%" stop-color="#E6F1FF"/>
      <stop offset="100%" stop-color="#FFF"/>
    </linearGradient>
  </defs>
  <g fill="none" fill-rule="evenodd">
    <polygon fill="url(#ci-cd-illustration-a)" fill-opacity=".09" fill-rule="nonzero" points="159 265.613 294 269.431 294 381.613 159 381.613"/>
    <polygon fill="url(#ci-cd-illustration-a)" fill-opacity=".09" fill-rule="nonzero" points="159 6.613 294 10.431 294 122.613 159 122.613" transform="rotate(180 226.5 64.613)"/>
    <path fill="url(#ci-cd-illustration-b)" fill-opacity=".5" d="M214,2.84217094e-14 L249,5.68434189e-14 C359.45695,3.65528063e-14 449,89.54305 449,200 L449,200 C449,310.45695 359.45695,400 249,400 L214,400 L214,2.84217094e-14 Z" opacity=".28"/>
    <path fill="url(#ci-cd-illustration-b)" fill-opacity=".5" d="M-1,2.84217094e-14 L34,5.68434189e-14 C144.45695,3.65528063e-14 234,89.54305 234,200 L234,200 C234,310.45695 144.45695,400 34,400 L-1,400 L-1,2.84217094e-14 Z" opacity=".28"/>
    <circle cx="153" cy="43" r="8" fill="#0069FF" fill-opacity=".05" fill-rule="nonzero"/>
    <circle cx="174" cy="26" r="4" fill="#0069FF" fill-opacity=".05" fill-rule="nonzero"/>
    <circle cx="216" cy="366" r="4" fill="#0069FF" fill-opacity=".1" fill-rule="nonzero"/>
    <circle cx="238" cy="349" r="8" fill="#0069FF" fill-opacity=".05" fill-rule="nonzero"/>
    <circle cx="67" cy="333" r="6" fill="#0069FF" fill-opacity=".1" fill-rule="nonzero"/>
    <circle cx="267" cy="55" r="2" fill="#0069FF" fill-opacity=".1" fill-rule="nonzero"/>
    <rect width="158" height="6" x="-1" y="250" fill="url(#ci-cd-illustration-c)" fill-rule="nonzero"/>
    <rect width="158" height="6" x="294" y="247" fill="url(#ci-cd-illustration-d)" fill-rule="nonzero"/>
    <path fill="url(#ci-cd-illustration-e)" d="M71.945054,142.353852 L133.054946,177.701382 C134.68148,178.642133 136,181.16619 136,183.338902 L136,238.41537 C136,240.588083 134.68148,241.586752 133.054946,240.645916 L71.945054,205.298556 C70.3185197,204.35772 69,201.833748 69,199.661036 L69,144.584568 C69,142.41177 70.3185197,141.413527 71.945054,142.353852 Z" opacity=".5"/>
    <path fill="url(#ci-cd-illustration-e)" d="M41.945054,142.353852 L103.054946,177.701382 C104.68148,178.642133 106,181.16619 106,183.338902 L106,238.41537 C106,240.588083 104.68148,241.586752 103.054946,240.645916 L41.945054,205.298556 C40.3185197,204.35772 39,201.833748 39,199.661036 L39,144.584568 C39,142.41177 40.3185197,141.413527 41.945054,142.353852 Z"/>
    <path fill="url(#ci-cd-illustration-f)" d="M11.945054,147.353852 L73.054946,182.701382 C74.6814803,183.642133 76,186.16619 76,188.338902 L76,243.41537 C76,245.588083 74.6814803,246.586752 73.054946,245.645916 L11.945054,210.298556 C10.3185197,209.35772 9,206.833748 9,204.661036 L9,149.584568 C9,147.41177 10.3185197,146.413527 11.945054,147.353852 Z"/>
    <path fill="url(#ci-cd-illustration-g)" d="M376.054946,142.353852 C377.68148,141.413527 379,142.41177 379,144.584568 L379,199.661036 C379,201.833748 377.68148,204.35772 376.054946,205.298556 L314.945054,240.645916 C313.31852,241.586752 312,240.588083 312,238.41537 L312,183.338902 C312,181.16619 313.31852,178.642133 314.945054,177.701382 L376.054946,142.353852 Z" opacity=".5"/>
    <path fill="url(#ci-cd-illustration-h)" d="M406.054946,142.353852 C407.68148,141.413527 409,142.41177 409,144.584568 L409,199.661036 C409,201.833748 407.68148,204.35772 406.054946,205.298556 L344.945054,240.645916 C343.31852,241.586752 342,240.588083 342,238.41537 L342,183.338902 C342,181.16619 343.31852,178.642133 344.945054,177.701382 L406.054946,142.353852 Z"/>
    <path fill="url(#ci-cd-illustration-f)" d="M436.054946,147.353852 C437.68148,146.413527 439,147.41177 439,149.584568 L439,204.661036 C439,206.833748 437.68148,209.35772 436.054946,210.298556 L374.945054,245.645916 C373.31852,246.586752 372,245.588083 372,243.41537 L372,188.338902 C372,186.16619 373.31852,183.642133 374.945054,182.701382 L436.054946,147.353852 Z"/>
    <path fill="#B0CEFC" d="M425.936486,190.754861 C426.10998,191.379574 425.919907,192.288285 425.465656,193.005318 L408.999985,219 L392.534356,212.419797 C392.08021,212.238204 391.88999,211.553792 392.063506,210.724332 L393.965908,201.631038 L397.73647,183.608835 C397.930448,182.681575 398.775264,182.183724 398.969033,182.882208 L402.739804,196.458506 L415.260291,189.077306 L419.030853,171.054891 C419.224873,170.12763 420.069585,169.629779 420.263521,170.328263 L424.033978,183.904774 L425.936486,190.754861 Z"/>
    <polygon fill="#FFF" points="409 219 403 196.401 415 189"/>
    <polygon fill="#D7E7FE" points="409 219 394 202.048 402.754 197"/>
    <path fill="#FFF" d="M394,202 L397.867608,184.050616 C398.066589,183.127113 398.932983,182.631279 399.132178,183.326933 L403,196.848428 L394,202 Z"/>
    <polygon fill="#D7E7FE" points="409 219 415.246 189.159 424 184"/>
    <path fill="#FFF" d="M424,183.848454 L415,189 L418.867812,171.050705 C419.066858,170.127207 419.933335,169.631163 420.132273,170.327025 L424,183.848454 Z"/>
    <path fill="#B0CEFC" d="M22.0635143,190.754861 L23.9660215,183.904774 L27.736479,170.328263 C27.9304151,169.629779 28.7751271,170.12763 28.9691467,171.054891 L32.7397086,189.077306 L45.2601958,196.458506 L49.0309665,182.882208 C49.2247356,182.183724 50.0695519,182.681575 50.2635298,183.608835 L54.0340917,201.631038 L55.9364945,210.724332 C56.1100096,211.553792 55.9197902,212.238204 55.465644,212.419797 L39.0000148,219 L22.5343439,193.005318 C22.0800933,192.288285 21.89002,191.379574 22.0635143,190.754861"/>
    <polygon fill="#FFF" points="39 219 33 189 45 196.401"/>
    <polygon fill="#D7E7FE" points="39 219 45.246 197 54 202.048"/>
    <path fill="#FFF" d="M54,202 L45,196.848428 L48.8678217,183.326933 C49.0670173,182.631279 49.9334111,183.127113 50.1323925,184.050616 L54,202 Z"/>
    <polygon fill="#D7E7FE" points="39 219 32.754 189.159 24 184"/>
    <path fill="#FFF" d="M24,183.848454 L33,189 L29.1321875,171.050705 C28.9331423,170.127207 28.0666649,169.631163 27.8677268,170.327025 L24,183.848454 Z"/>
    <path stroke="url(#ci-cd-illustration-i)" stroke-linecap="round" stroke-linejoin="round" stroke-width="3" d="M274,146.5 L348.679687,146.5" opacity=".7" transform="matrix(1 0 0 -1 0 293)"/>
    <path stroke="url(#ci-cd-illustration-j)" stroke-dasharray="0 10" stroke-linecap="round" stroke-linejoin="round" stroke-width="3" d="M4,276.5 L78.6796875,276.5" opacity=".7" transform="matrix(1 0 0 -1 0 553)"/>
    <path stroke="url(#ci-cd-illustration-i)" stroke-linecap="round" stroke-linejoin="round" stroke-width="3" d="M13 374.006396L74.6986602 374.006396C90.1643995 374.006396 102.701858 361.468937 102.701858 346.003198L102.701858 346.003198C102.701858 330.537459 115.239317 318 130.705056 318L175.699219 318M303 69.0063961L354.645239 69.0063961C363.483562 69.0063961 370.648437 61.8415203 370.648437 53.003198L370.648437 53.003198C370.648437 44.1648758 377.813313 37 386.651636 37L425.699219 37" opacity=".7"/>
    <path stroke="url(#ci-cd-illustration-i)" stroke-dasharray="0 10" stroke-linecap="round" stroke-linejoin="round" stroke-width="3" d="M224,123.006396 L291.339312,123.006396 C301.558346,123.006396 309.84251,114.722232 309.84251,104.503198 L309.84251,104.503198 C309.84251,94.2841639 318.126674,86 328.345708,86 L379.699219,86" opacity=".7" transform="matrix(1 0 0 -1 0 209.006)"/>
    <path stroke="url(#ci-cd-illustration-i)" stroke-linecap="round" stroke-linejoin="round" stroke-width="3" d="M4,123.006396 L51.6452395,123.006396 C58.8267074,123.006396 64.6484375,117.184666 64.6484375,110.003198 L64.6484375,110.003198 C64.6484375,102.82173 70.4701676,97 77.6516355,97 L127.076141,97" opacity=".7" transform="matrix(1 0 0 -1 0 220.006)"/>
    <path stroke="url(#ci-cd-illustration-i)" stroke-dasharray="0 10" stroke-linecap="round" stroke-linejoin="round" stroke-width="3" d="M30,39.780054 L96.927123,39.780054 C105.686344,39.780054 112.787096,46.8808058 112.787096,55.640027 L112.787096,55.640027 C112.787096,64.3992482 105.686344,71.5 96.927123,71.5 L92.3854049,71.5 C81.1178621,71.5 71.9837138,62.3658518 71.9837138,51.0983089 L71.9837138,46.5565314 C71.9837138,32.780634 83.1512851,21.6130627 96.9271825,21.6130627 L208.835937,21.6130627" opacity=".7" transform="matrix(1 0 0 -1 0 93.113)"/>
    <circle cx="434" cy="37" r="8" fill="url(#ci-cd-illustration-k)" fill-rule="nonzero"/>
    <circle cx="434" cy="37" r="4" fill="#120078" fill-rule="nonzero"/>
    <circle cx="385" cy="123" r="8" fill="url(#ci-cd-illustration-k)" fill-rule="nonzero"/>
    <circle cx="385" cy="123" r="4" fill="#120078" fill-rule="nonzero"/>
    <circle cx="215" cy="72" r="8" fill="url(#ci-cd-illustration-k)" fill-rule="nonzero"/>
    <circle cx="215" cy="72" r="4" fill="#120078" fill-rule="nonzero"/>
    <circle cx="415" cy="288" r="8" fill="url(#ci-cd-illustration-k)" fill-rule="nonzero"/>
    <circle cx="415" cy="288" r="4" fill="#120078" fill-rule="nonzero"/>
    <circle cx="176" cy="319" r="8" fill="url(#ci-cd-illustration-k)" fill-rule="nonzero"/>
    <circle cx="176" cy="319" r="4" fill="#120078" fill-rule="nonzero"/>
    <circle cx="350.5" cy="146.5" r="4.5" fill="url(#ci-cd-illustration-k)" fill-rule="nonzero"/>
    <circle cx="350.5" cy="146.5" r="2.25" fill="#120078" fill-rule="nonzero"/>
    <circle cx="84.5" cy="276.5" r="4.5" fill="url(#ci-cd-illustration-k)" fill-rule="nonzero"/>
    <circle cx="84.5" cy="276.5" r="2.25" fill="#120078" fill-rule="nonzero"/>
    <circle cx="126.5" cy="123.5" r="4.5" fill="url(#ci-cd-illustration-k)" fill-rule="nonzero"/>
    <circle cx="126.5" cy="123.5" r="2.25" fill="#120078" fill-rule="nonzero"/>
    <path stroke="url(#ci-cd-illustration-j)" stroke-dasharray="0 10" stroke-linecap="round" stroke-linejoin="round" stroke-width="3" d="M232,311.993604 L294.445416,311.993604 C311.536788,311.993604 325.392082,325.848899 325.392082,342.940271 L325.392082,343.336156 C325.392082,360.208887 311.714032,373.886937 294.841301,373.886937 L294.841301,373.886937 C277.96857,373.886937 264.29052,360.208887 264.29052,343.336156 L264.29052,330.943469 C264.29052,307.226446 283.516966,288 307.233988,288 L409.841301,288" opacity=".7"/>
    <rect width="137" height="158" x="157" y="115" fill="url(#ci-cd-illustration-f)" rx="8"/>
    <rect width="37" height="4" x="168" y="128" fill="#003FA3" fill-rule="nonzero" rx="1"/>
    <rect width="37" height="4" x="178" y="238" fill="#FFF" fill-rule="nonzero" rx="1"/>
    <rect width="15" height="4" x="188" y="258" fill="#FFF" fill-rule="nonzero" rx="1"/>
    <rect width="24" height="4" x="208" y="258" fill="#CCE1FF" fill-rule="nonzero" rx="1"/>
    <rect width="15" height="4" x="168" y="248" fill="#003FA3" fill-rule="nonzero" rx="1"/>
    <rect width="16" height="4" x="253" y="248" fill="#FFF" fill-rule="nonzero" rx="1"/>
    <rect width="6" height="4" x="258" y="238" fill="#FFF" fill-rule="nonzero" rx="1"/>
    <rect width="16" height="4" x="268" y="238" fill="#CCE1FF" fill-rule="nonzero" rx="1"/>
    <rect width="7" height="4" x="188" y="248" fill="#CCE1FF" fill-rule="nonzero" rx="1"/>
    <rect width="8" height="4" x="198" y="248" fill="#FFF" fill-rule="nonzero" rx="1"/>
    <rect width="37" height="4" x="248" y="138" fill="#CCE1FF" fill-rule="nonzero" rx="1"/>
    <rect width="37" height="4" x="178" y="138" fill="#FFF" fill-rule="nonzero" rx="1"/>
    <rect width="25" height="4" x="168" y="148" fill="#CCE1FF" fill-rule="nonzero" rx="1"/>
    <rect width="16" height="4" x="240" y="148" fill="#003FA3" fill-rule="nonzero" rx="1"/>
    <rect width="16" height="4" x="263" y="158" fill="#FFF" fill-rule="nonzero" rx="1"/>
    <rect width="8" height="4" x="259" y="148" fill="#FFF" fill-rule="nonzero" rx="1"/>
    <rect width="10" height="4" x="188" y="158" fill="#FFF" fill-rule="nonzero" rx="1"/>
    <rect width="4" height="4" x="200" y="158" fill="#FFF" fill-rule="nonzero" rx="1"/>
    <rect width="7" height="4" x="218" y="138" fill="#FFF" fill-rule="nonzero" rx="1"/>
    <path fill="#160350" d="M253.876321,175.12357 C253.476081,173.836458 252.515504,172.790679 251.314783,172.147123 L226.900116,160.402223 C226.259731,160.080445 225.539298,160 224.898914,160 C224.258529,160 223.538096,160 222.897711,160.160889 L198.483045,171.986234 C197.282323,172.549345 196.401794,173.595124 196.081602,174.962681 L190.077996,201.428928 C189.837851,202.796485 190.158044,204.164042 190.958524,205.290265 L207.848671,226.286285 C208.809248,227.251619 210.170066,227.895175 211.530883,227.97562 L238.42704,227.97562 C239.867906,228.136509 241.228724,227.492953 242.109252,226.286285 L258.999399,205.290265 C259.79988,204.164042 260.120072,202.796485 259.959976,201.428928 L253.876321,175.12357 Z"/>
    <path fill="#FFF" fill-rule="nonzero" d="M249.563989,199.752518 C249.484211,199.752518 249.404433,199.752518 249.404433,199.672171 C249.404433,199.591824 249.244876,199.591824 249.085319,199.591824 C248.766206,199.511477 248.447092,199.511477 248.127979,199.511477 C247.968422,199.511477 247.808865,199.511477 247.649309,199.43113 L247.56953,199.43113 C246.691968,199.350783 245.734628,199.190088 244.857066,198.949047 C244.617731,198.8687 244.378396,198.627658 244.298618,198.386617 C244.378396,198.386617 244.298618,198.386617 244.298618,198.386617 L243.660391,198.225923 C243.979504,195.895855 243.819947,193.485441 243.341277,191.155374 C242.782829,188.825306 241.825488,186.575586 240.549034,184.566907 L241.027705,184.084824 L241.027705,184.004477 C241.027705,183.763436 241.107483,183.442047 241.26704,183.281353 C241.985045,182.638576 242.70305,182.156493 243.500834,181.67441 C243.660391,181.594063 243.819947,181.513716 243.979504,181.433369 C244.298618,181.272674 244.537953,181.11198 244.857066,180.951286 C244.936844,180.870938 245.016623,180.870938 245.096401,180.790591 C245.17618,180.710244 245.096401,180.710244 245.096401,180.629897 C245.814406,180.067467 245.973963,179.103301 245.415515,178.380177 C245.17618,178.058788 244.697509,177.817747 244.298618,177.817747 C243.899726,177.817747 243.500834,177.978441 243.18172,178.219483 L243.101942,178.29983 C243.022164,178.380177 242.942385,178.460524 242.862607,178.460524 C242.623272,178.701565 242.383937,178.942607 242.22438,179.183648 C242.144602,179.344343 241.985045,179.42469 241.905267,179.505037 C241.346818,180.147814 240.628813,180.790591 239.910808,181.272674 C239.751251,181.353021 239.591694,181.433369 239.432137,181.433369 C239.352359,181.433369 239.192802,181.433369 239.113024,181.353021 L239.033246,181.353021 L238.395019,181.754757 C237.756792,181.11198 237.038786,180.469203 236.40056,179.826426 C233.44876,177.496358 229.778955,176.05011 226.029372,175.648374 L225.949594,175.005597 L225.949594,175.085944 C225.710259,174.925249 225.630481,174.684208 225.550702,174.443167 C225.550702,173.559348 225.550702,172.675529 225.710259,171.711364 L225.710259,171.631016 C225.710259,171.470322 225.790037,171.309628 225.790037,171.148933 C225.869816,170.827545 225.869816,170.506156 225.949594,170.184768 L225.949594,169.702685 C226.029372,168.899213 225.391145,168.095742 224.593362,168.015395 C224.114692,167.935048 223.636021,168.176089 223.23713,168.577825 C222.918016,168.899213 222.75846,169.300949 222.75846,169.702685 L222.75846,170.104421 C222.75846,170.425809 222.838238,170.747198 222.918016,171.068586 C222.997795,171.229281 222.997795,171.389975 222.997795,171.550669 L222.997795,171.631016 C223.157351,172.514835 223.157351,173.398654 223.157351,174.362819 C223.077573,174.603861 222.997795,174.844902 222.75846,175.005597 L222.75846,175.166291 L222.678681,175.809068 C221.801119,175.889415 220.923557,176.05011 219.966217,176.210804 C216.216634,177.014275 212.786164,179.022954 210.153478,181.835104 L209.674808,181.513716 L209.59503,181.513716 C209.515251,181.513716 209.435473,181.594063 209.275916,181.594063 C209.116359,181.594063 208.956803,181.513716 208.797246,181.433369 C208.079241,180.870938 207.361235,180.228161 206.802787,179.585384 C206.723009,179.42469 206.563452,179.344343 206.483673,179.263995 C206.244338,179.022954 206.084782,178.781913 205.845447,178.540871 C205.765668,178.460524 205.68589,178.460524 205.606111,178.380177 C205.526333,178.29983 205.526333,178.29983 205.526333,178.29983 C205.20722,178.058788 204.808328,177.898094 204.409436,177.898094 C203.930766,177.898094 203.531874,178.058788 203.292539,178.460524 C202.813869,179.183648 202.973425,180.147814 203.611652,180.710244 C203.691431,180.710244 203.691431,180.790591 203.691431,180.790591 C203.691431,180.790591 203.850987,180.951286 203.930766,180.951286 C204.170101,181.11198 204.489214,181.272674 204.808328,181.433369 C204.967885,181.513716 205.127441,181.594063 205.286998,181.67441 C206.084782,182.156493 206.882565,182.638576 207.520792,183.281353 C207.680349,183.442047 207.839906,183.763436 207.760127,184.004477 L207.760127,183.92413 L208.238797,184.406213 C208.159019,184.566907 208.079241,184.647254 207.999462,184.807949 C205.526333,188.744959 204.489214,193.405094 205.20722,197.984881 L204.568993,198.145575 C204.568993,198.225923 204.489214,198.225923 204.489214,198.225923 C204.409436,198.466964 204.170101,198.627658 203.930766,198.788353 C203.053204,199.029394 202.175642,199.190088 201.218302,199.270436 C201.058745,199.270436 200.899188,199.270436 200.739631,199.350783 C200.420518,199.350783 200.101404,199.43113 199.782291,199.43113 C199.702513,199.43113 199.622734,199.511477 199.463178,199.511477 C199.383399,199.511477 199.383399,199.511477 199.303621,199.591824 C198.426059,199.752518 197.86761,200.55599 198.027167,201.439809 C198.027167,201.439809 198.027167,201.439809 198.027167,201.439809 C198.186724,202.162933 198.904729,202.645016 199.622734,202.564669 C199.782291,202.564669 199.862069,202.564669 200.021626,202.484322 C200.101404,202.484322 200.101404,202.484322 200.101404,202.403974 C200.101404,202.323627 200.34074,202.403974 200.420518,202.403974 C200.739631,202.323627 201.058745,202.162933 201.29808,202.082586 C201.457637,202.002239 201.617193,201.921891 201.77675,201.921891 L201.856528,201.921891 C202.73409,201.600503 203.531874,201.359461 204.489214,201.198767 L204.568993,201.198767 C204.808328,201.198767 205.047663,201.279114 205.20722,201.439809 C205.286998,201.439809 205.286998,201.520156 205.286998,201.520156 L206.005003,201.439809 C207.201679,205.135777 209.435473,208.430011 212.546829,210.840425 C213.264834,211.402855 213.903061,211.884938 214.700845,212.286674 L214.301953,212.849104 C214.301953,212.929451 214.381731,212.929451 214.381731,212.929451 C214.541288,213.170492 214.541288,213.491881 214.46151,213.732922 C214.142396,214.536394 213.663726,215.339865 213.185056,216.06299 L213.185056,216.143337 C213.105278,216.304031 213.025499,216.384378 212.865942,216.545073 C212.706386,216.705767 212.546829,217.027155 212.307494,217.348544 C212.227716,217.428891 212.227716,217.509238 212.147937,217.589586 C212.147937,217.589586 212.147937,217.669933 212.068159,217.669933 C211.669267,218.473404 211.988381,219.43757 212.706386,219.839306 C212.865942,219.919653 213.105278,220 213.264834,220 C213.903061,220 214.46151,219.598264 214.780623,219.035834 C214.780623,219.035834 214.780623,218.955487 214.860402,218.955487 C214.860402,218.87514 214.94018,218.794793 215.019958,218.714446 C215.099737,218.393057 215.259293,218.152016 215.339072,217.830627 L215.498628,217.348544 C215.737964,216.464725 216.136855,215.661254 216.535747,214.857782 C216.695304,214.616741 216.934639,214.456047 217.173974,214.3757 C217.253752,214.3757 217.253752,214.3757 217.253752,214.295352 L217.572866,213.652575 C219.80666,214.536394 222.120233,214.93813 224.513583,214.93813 C225.949594,214.93813 227.385605,214.777435 228.821615,214.3757 C229.699177,214.215005 230.576739,213.893617 231.374523,213.652575 L231.693636,214.215005 C231.773415,214.215005 231.773415,214.215005 231.773415,214.295352 C232.01275,214.3757 232.252085,214.536394 232.411641,214.777435 C232.810533,215.580907 233.209425,216.384378 233.44876,217.268197 L233.44876,217.348544 L233.608317,217.830627 C233.688095,218.152016 233.767874,218.473404 233.92743,218.714446 C234.007209,218.794793 234.007209,218.87514 234.086987,218.955487 C234.086987,218.955487 234.086987,219.035834 234.166765,219.035834 C234.485879,219.598264 235.044327,220 235.682554,220 C235.921889,220 236.081446,219.919653 236.320781,219.839306 C236.639895,219.678611 236.959008,219.357223 237.038786,218.955487 C237.118565,218.553751 237.118565,218.152016 236.959008,217.75028 C236.959008,217.669933 236.87923,217.669933 236.87923,217.669933 C236.87923,217.589586 236.799451,217.509238 236.719673,217.428891 C236.560116,217.107503 236.40056,216.866461 236.161224,216.62542 C236.081446,216.464725 236.001668,216.384378 235.842111,216.223684 L235.842111,216.06299 C235.283662,215.339865 234.884771,214.536394 234.565657,213.732922 C234.485879,213.491881 234.485879,213.170492 234.645436,212.929451 C234.645436,212.849104 234.725214,212.849104 234.725214,212.849104 L234.485879,212.206327 C238.554575,209.715565 241.665932,205.858902 243.101942,201.279114 L243.740169,201.359461 C243.819947,201.359461 243.819947,201.279114 243.819947,201.279114 C243.979504,201.11842 244.218839,201.038073 244.458174,201.038073 L244.537953,201.038073 C245.415515,201.198767 246.293077,201.439809 247.09086,201.761197 L247.170639,201.761197 C247.330195,201.841544 247.489752,201.921891 247.649309,201.921891 C247.968422,202.082586 248.207757,202.24328 248.526871,202.323627 C248.606649,202.323627 248.686427,202.403974 248.845984,202.403974 C248.925763,202.403974 248.925763,202.403974 249.005541,202.484322 C249.165098,202.564669 249.244876,202.564669 249.404433,202.564669 C250.122438,202.564669 250.760665,202.082586 251,201.439809 C250.920222,200.55599 250.281995,199.913213 249.563989,199.752518 Z M226.508043,197.261757 L224.354027,198.30627 L222.200011,197.261757 L221.641562,194.93169 L223.157351,193.003358 L225.550702,193.003358 L227.066491,194.93169 L226.508043,197.261757 Z M239.511916,192.039192 C239.910808,193.726482 239.990586,195.413772 239.831029,197.101063 L232.252085,194.93169 C231.534079,194.770995 231.135188,194.047871 231.294744,193.324747 C231.374523,193.083705 231.454301,192.923011 231.613858,192.762317 L237.597235,187.29871 C238.474797,188.744959 239.113024,190.351902 239.511916,192.039192 Z M235.203884,184.325866 L228.662058,188.986001 C228.10361,189.307389 227.305826,189.227042 226.906934,188.664612 C226.747378,188.503918 226.667599,188.343223 226.667599,188.102182 L226.188929,179.98712 C229.699177,180.388856 232.810533,181.915451 235.203884,184.325866 Z M220.764,180.228161 L222.359568,179.906773 L221.960676,187.941488 C221.960676,188.664612 221.322449,189.227042 220.604444,189.227042 C220.365109,189.227042 220.205552,189.146695 219.966217,189.066348 L213.344613,184.325866 C215.41885,182.317187 217.971758,180.870938 220.764,180.228161 Z M211.03104,187.29871 L216.934639,192.601622 C217.493088,193.083705 217.572866,193.887177 217.094196,194.449607 C216.934639,194.690648 216.775082,194.770995 216.455969,194.851342 L208.717468,197.101063 C208.478133,193.726482 209.275916,190.271555 211.03104,187.29871 Z M209.674808,200.877379 L217.572866,199.511477 C218.211093,199.511477 218.84932,199.913213 218.929098,200.55599 C219.008876,200.797031 219.008876,201.11842 218.84932,201.359461 L215.817742,208.751399 C213.025499,206.903415 210.791705,204.091265 209.674808,200.877379 Z M227.784496,210.840425 C226.667599,211.081466 225.550702,211.242161 224.354027,211.242161 C222.678681,211.242161 220.923557,210.920772 219.32799,210.438689 L223.23713,203.287793 C223.636021,202.80571 224.274248,202.645016 224.832697,202.966404 C225.072032,203.127099 225.231589,203.287793 225.470924,203.528834 L229.300285,210.519036 C228.821615,210.599384 228.342945,210.679731 227.784496,210.840425 Z M237.517457,203.850223 C236.320781,205.778555 234.645436,207.465845 232.730755,208.671052 L229.619399,201.11842 C229.459842,200.475643 229.778955,199.832866 230.337404,199.591824 C230.576739,199.511477 230.816074,199.43113 231.055409,199.43113 L239.033246,200.797031 C238.634354,201.921891 238.155684,202.966404 237.517457,203.850223 Z"/>
  </g>
</svg>
